<?xml version="1.0" encoding="UTF-8" standalone="no"?>
<svg
   version="1.0"
   width="68.613419mm"
   height="8.7206039mm"
   id="svg37"
   xmlns="http://www.w3.org/2000/svg"
   xmlns:svg="http://www.w3.org/2000/svg" viewBox="0 0 259.326 32.960" preserveAspectRatio="xMidYMid meet">
  <defs
     id="defs1">
    <clipPath
       clipPathUnits="userSpaceOnUse"
       id="clipEmfPath1">
      <path
         d="M 0,0 V 0 42.076294 H 265.72697 V 0"
         id="path1" />
    </clipPath>
    <pattern
       id="EMFhbasepattern"
       patternUnits="userSpaceOnUse"
       width="6"
       height="6"
       x="0"
       y="0" />
  </defs>
  <path
     style="fill:#000000;fill-opacity:1;fill-rule:nonzero;stroke:none"
     clip-path="url(#clipEmfPath1)"
     d="m 6.9007003,10.018165 v 0 c -0.5000508,0 -1.0001015,0.300545 -1.300132,0.901635 -0.4000406,0.701272 -0.6000609,1.502725 -0.6000609,2.604723 0,0.60109 0.1000102,1.101998 0.4000406,1.402543 0.2000203,0.300545 0.5000508,0.500908 1.0001015,0.500908 0.5000508,0 1.0001015,-0.300545 1.300132,-1.001816 0.4000406,-0.60109 0.6000608,-1.502725 0.6000608,-2.40436 0,-0.701271 -0.1000101,-1.20218 -0.4000405,-1.502725 C 7.7007815,10.118347 7.400751,10.018165 6.9007003,10.018165 Z m 1.7001725,1.001817 v 0 c 0,-0.300545 0.1000101,-0.60109 0.1000101,-1.001817 0,-0.4007264 0.1000102,-0.801453 0.1000102,-1.4025429 0,-0.9016349 -0.1000102,-1.6029065 -0.3000305,-2.0036331 C 8.3008423,6.2112624 8.1008221,6.0108991 7.7007815,6.0108991 c -0.2000203,0 -0.4000406,0.1001817 -0.7000711,0.5009083 C 6.6006698,6.912534 6.3006394,7.1128973 6.1006191,7.1128973 5.9005988,7.1128973 5.7005785,7.0127156 5.6005683,6.912534 5.5005582,6.8123523 5.5005582,6.7121707 5.5005582,6.611989 c 0,-0.3005449 0.1000101,-0.6010899 0.4000406,-0.8014532 0.4000406,-0.3005449 0.700071,-0.4007266 1.2001218,-0.4007266 0.8000812,0 1.5001522,0.4007266 2.0002029,1.2021798 0.5000508,0.7012716 0.7000711,1.8032698 0.7000711,3.1056312 0,1.7030878 -0.3000305,3.2058128 -1.0001015,4.3078108 -0.700071,1.20218 -1.5001522,1.703088 -2.5002537,1.703088 -0.8000812,0 -1.300132,-0.200363 -1.8001827,-0.801453 -0.4000406,-0.500908 -0.6000609,-1.20218 -0.6000609,-2.203996 0,-0.801453 0.2000203,-1.602907 0.8000812,-2.304178 0.5000507,-0.6010901 1.2001218,-0.9016351 2.000203,-0.9016351 0.4000406,0 0.8000812,0.1001817 1.1001116,0.4007267 0.4000406,0.2003634 0.6000609,0.6010894 0.8000812,1.1019984 z"
     id="path2"
     transform="translate(-2.6002639,-5.2094459)" />
  <path
     style="fill:#000000;fill-opacity:1;fill-rule:nonzero;stroke:none"
     clip-path="url(#clipEmfPath1)"
     d="m 12.601279,11.821435 v 0 c 0.40004,-1.20218 0.900091,-2.2039964 1.700172,-2.905268 0.800081,-0.7012715 1.800183,-1.1019981 2.900295,-1.1019981 1.000101,0 1.800182,0.4007266 2.200223,1.1019981 0.500051,0.7012716 0.500051,1.602906 0.20002,2.805086 -0.30003,1.20218 -0.800081,2.103815 -1.600162,2.905268 -0.900092,0.701272 -1.800183,1.101998 -2.700274,1.101998 -0.400041,0 -0.800081,-0.100181 -1.200122,-0.300545 -0.30003,-0.100181 -0.600061,-0.400726 -0.800081,-0.701271 l -1.100112,4.407993 h -1.400142 z m 4.200426,-3.5063579 v 0 c -0.600061,0 -1.100112,0.2003633 -1.600162,0.7012716 -0.400041,0.6010899 -0.800082,1.3023613 -1.000102,2.2039963 -0.30003,1.20218 -0.30003,2.203996 -0.10001,2.905268 0.20002,0.801453 0.700071,1.101998 1.300132,1.101998 0.700071,0 1.200122,-0.200363 1.600162,-0.701271 0.500051,-0.500909 0.800081,-1.20218 1.000102,-2.203997 0.40004,-1.20218 0.40004,-2.203996 0.20002,-2.9052677 -0.30003,-0.8014532 -0.700071,-1.1019982 -1.400142,-1.1019982 z"
     id="path3"
     transform="translate(-2.6002639,-5.2094459)" />
  <path
     style="fill:#000000;fill-opacity:1;fill-rule:nonzero;stroke:none"
     clip-path="url(#clipEmfPath1)"
     d="m 20.502081,15.327793 v 0 c 0.40004,-0.100182 0.800081,-0.100182 1.000101,-0.200364 0.30003,-0.200363 0.500051,-0.500908 0.600061,-1.001816 L 23.102344,10.719437 21.902223,6.5118074 C 21.802212,6.0108991 21.602192,5.7103542 21.502182,5.6101725 21.402172,5.5099909 21.102141,5.5099909 20.702101,5.4098092 V 5.2094459 h 3.800385 v 0.2003633 c -0.40004,0 -0.700071,0.1001817 -0.800081,0.1001817 -0.20002,0.1001816 -0.40004,0.3005449 -0.40004,0.5009082 0,0.1001817 0,0.2003633 0.10001,0.300545 0,0.2003633 0,0.3005449 0,0.3005449 l 1.000101,3.406176 1.700173,-2.1038145 c 0.40004,-0.5009082 0.700071,-0.8014532 0.900091,-1.1019982 0.300031,-0.4007266 0.400041,-0.7012715 0.400041,-0.9016348 0,-0.2003633 -0.10001,-0.300545 -0.300031,-0.4007266 -0.20002,0 -0.40004,-0.1001817 -0.800081,-0.1001817 V 5.2094459 h 3.300335 v 0.2003633 c -0.30003,0 -0.500051,0.1001817 -0.700071,0.2003633 -0.20002,0.2003633 -0.400041,0.4007266 -0.700071,0.8014532 l -3.500355,4.3078113 -0.900092,2.905268 c 0,0.300545 -0.10001,0.500908 -0.10001,0.60109 0,0.200363 0,0.300545 0,0.400726 0,0.300545 0,0.500908 0.200021,0.500908 0.20002,0.100182 0.60006,0.200364 1.200121,0.200364 v 0.200363 h -4.600466 z"
     id="path4"
     transform="translate(-2.6002639,-5.2094459)" />
  <path
     style="fill:#000000;fill-opacity:1;fill-rule:nonzero;stroke:none"
     clip-path="url(#clipEmfPath1)"
     d="m 31.303177,17.331426 v 0 c 0,-0.60109 0,-1.101998 -0.200021,-1.302362 -0.10001,-0.300545 -0.30003,-0.400726 -0.700071,-0.400726 -0.40004,0 -0.700071,0.100181 -1.000101,0.500908 -0.300031,0.300545 -0.500051,0.701272 -0.600061,1.302361 -0.20002,0.701272 -0.20002,1.101999 -0.10001,1.502725 0.10001,0.300545 0.40004,0.500908 0.800081,0.500908 0.30003,0 0.600061,-0.200363 0.900091,-0.500908 0.300031,-0.300545 0.600061,-0.801453 0.900092,-1.602906 z m 1.800182,-1.903452 v 0 l -0.700071,1.402544 c -0.10001,0.200363 -0.20002,0.400726 -0.40004,0.701271 -0.100011,0.200363 -0.200021,0.400727 -0.400041,0.60109 0,0.300545 0.10001,0.500908 0.20002,0.60109 0.10001,0.200363 0.200021,0.200363 0.300031,0.200363 0.10001,0 0.20002,0 0.30003,-0.100181 0.10001,-0.100182 0.10001,-0.200364 0.200021,-0.300545 h 0.20002 l -0.10001,0.100181 c 0,0.300545 -0.200021,0.60109 -0.300031,0.801453 -0.10001,0.100182 -0.30003,0.200364 -0.500051,0.200364 -0.20002,0 -0.30003,-0.100182 -0.40004,-0.200364 -0.10001,-0.200363 -0.10001,-0.500908 -0.10001,-1.001816 -0.400041,0.400727 -0.700071,0.701272 -1.000102,0.901635 -0.40004,0.200363 -0.700071,0.300545 -1.100111,0.300545 -0.600061,0 -1.000102,-0.200364 -1.300132,-0.60109 -0.300031,-0.400727 -0.400041,-1.001817 -0.200021,-1.602907 0.100011,-0.601089 0.500051,-1.101998 1.000102,-1.502724 0.500051,-0.400727 1.000101,-0.60109 1.500152,-0.60109 0.500051,0 0.800081,0.100181 1.000102,0.300545 0.20002,0.300545 0.30003,0.701271 0.30003,1.20218 l 0.700071,-1.402544 z"
     id="path5"
     transform="translate(-2.6002639,-5.2094459)" />
  <path
     style="fill:#000000;fill-opacity:1;fill-rule:nonzero;stroke:none"
     clip-path="url(#clipEmfPath1)"
     d="m 16.401664,32.358674 v 0 c -0.50005,0 -1.000101,0.400726 -1.300132,1.001816 -0.40004,0.701272 -0.60006,1.502725 -0.60006,2.604723 0,0.60109 0.10001,1.001817 0.40004,1.402543 0.20002,0.300545 0.500051,0.500908 1.000102,0.500908 0.50005,0 1.000101,-0.400726 1.300132,-1.001816 0.40004,-0.701272 0.60006,-1.502725 0.60006,-2.504541 0,-0.60109 -0.10001,-1.101999 -0.40004,-1.402543 -0.20002,-0.400727 -0.500051,-0.60109 -1.000102,-0.60109 z m 1.700173,1.001816 v 0 c 0,-0.200363 0.10001,-0.500908 0.10001,-0.901635 0,-0.400726 0.10001,-0.901635 0.10001,-1.402543 0,-0.901635 -0.10001,-1.602906 -0.30003,-2.003633 -0.200021,-0.500908 -0.400041,-0.701271 -0.800081,-0.701271 -0.200021,0 -0.400041,0.200363 -0.700071,0.601089 -0.400041,0.400727 -0.700071,0.500909 -0.900092,0.500909 -0.20002,0 -0.40004,0 -0.500051,-0.100182 -0.10001,-0.100182 -0.10001,-0.200363 -0.10001,-0.400727 0,-0.300545 0.10001,-0.500908 0.400041,-0.801453 0.400041,-0.200363 0.700071,-0.300545 1.200122,-0.300545 0.800081,0 1.500152,0.400727 2.000203,1.101998 0.50005,0.801454 0.700071,1.80327 0.700071,3.205813 0,1.703088 -0.300031,3.105632 -1.000102,4.307811 -0.700071,1.101999 -1.500152,1.703088 -2.500253,1.703088 -0.800082,0 -1.300132,-0.300545 -1.800183,-0.801453 -0.400041,-0.500908 -0.600061,-1.302361 -0.600061,-2.203996 0,-0.901635 0.20002,-1.602907 0.800081,-2.304178 0.500051,-0.60109 1.200122,-0.901635 2.000203,-0.901635 0.400041,0 0.800081,0.100182 1.100112,0.300545 0.40004,0.300545 0.600061,0.60109 0.800081,1.101998 z"
     id="path6"
     transform="translate(-2.6002639,-5.2094459)" />
  <path
     style="fill:#000000;fill-opacity:1;fill-rule:nonzero;stroke:none"
     clip-path="url(#clipEmfPath1)"
     d="m 20.802111,37.467938 v 0 c 0,-0.100182 0,-0.100182 0,-0.200363 0.10001,0 0.10001,-0.100182 0.10001,-0.100182 l 1.400142,-5.409809 h -1.100111 c 0,-0.200364 0,-0.300545 0,-0.300545 0,0 0.10001,-0.100182 0.10001,-0.100182 0.600061,-0.200363 1.000101,-0.500908 1.300132,-0.701271 0.20002,-0.200364 0.600061,-0.60109 1.100111,-1.20218 l 0.200021,-0.100182 c 0,0 0,0 0,-0.100182 0,0 0.10001,0 0.10001,0 0,0 0.10001,0 0.10001,0.100182 0,0 0,0 0,0 0,0.100182 0,0.100182 0,0.100182 l -0.400041,1.703088 h 1.200122 v 0.60109 h -1.400142 l -1.400142,5.209446 c 0,0.100181 0,0.200363 0.10001,0.200363 0,0.100182 0.10001,0.200363 0.20002,0.200363 0.10001,0 0.300031,-0.200363 0.500051,-0.400726 0.20002,-0.200364 0.400041,-0.500909 0.700071,-0.901635 l 0.20002,0.100181 -0.10001,0.200364 c -0.40004,0.701271 -0.800081,1.101998 -1.100111,1.402543 -0.400041,0.200363 -0.700071,0.400726 -1.000102,0.400726 -0.30003,0 -0.500051,-0.100181 -0.600061,-0.200363 -0.10001,-0.200363 -0.20002,-0.300545 -0.20002,-0.500908 z"
     id="path7"
     transform="translate(-2.6002639,-5.2094459)" />
  <path
     style="fill:none;stroke:#000000;stroke-width:0.700071px;stroke-linecap:butt;stroke-linejoin:miter;stroke-miterlimit:10;stroke-dasharray:none;stroke-opacity:1"
     clip-path="url(#clipEmfPath1)"
     d="m 2.6002639,21.739418 v 0 H 35.603613"
     id="path8"
     transform="translate(-2.6002639,-5.2094459)" />
  <path
     style="fill:#000000;fill-opacity:1;fill-rule:nonzero;stroke:none"
     clip-path="url(#clipEmfPath1)"
     d="m 43.304394,20.937965 v 0 h 3.100315 v 1.001817 h -3.100315 v 3.305994 h -1.100111 v -3.305994 h -3.100315 v -1.001817 h 3.100315 v -3.305994 h 1.100111 z"
     id="path9"
     transform="translate(-2.6002639,-5.2094459)" />
  <path
     style="fill:#000000;fill-opacity:1;fill-rule:nonzero;stroke:none"
     clip-path="url(#clipEmfPath1)"
     d="m 55.905673,22.841417 v 0 l 3.600366,-7.413443 h -7.200731 z m -0.40004,2.504541 v 0 H 55.205602 L 50.005074,14.626521 H 60.60615 Z"
     id="path10"
     transform="translate(-2.6002639,-5.2094459)" />
  <path
     style="fill:#000000;fill-opacity:1;fill-rule:nonzero;stroke:none"
     clip-path="url(#clipEmfPath1)"
     d="m 64.106505,19.936149 v 0 c 0,-0.200364 0.100011,-0.500909 0.300031,-0.60109 0.20002,-0.200363 0.40004,-0.300545 0.600061,-0.300545 0.30003,0 0.50005,0.100182 0.700071,0.300545 0.20002,0.100181 0.30003,0.300545 0.30003,0.60109 0,0.300545 -0.10001,0.500908 -0.30003,0.701271 -0.200021,0.100182 -0.400041,0.200364 -0.700071,0.200364 -0.200021,0 -0.400041,-0.100182 -0.600061,-0.300545 -0.20002,-0.100182 -0.300031,-0.400727 -0.300031,-0.60109 z"
     id="path11"
     transform="translate(-2.6002639,-5.2094459)" />
  <path
     style="fill:#000000;fill-opacity:1;fill-rule:nonzero;stroke:none"
     clip-path="url(#clipEmfPath1)"
     d="m 76.907804,21.438874 v 0 c 0.300031,-1.20218 0.800082,-2.203997 1.600163,-2.905268 0.900091,-0.701272 1.800182,-1.101999 2.900294,-1.101999 1.000102,0 1.800183,0.400727 2.200223,1.101999 0.500051,0.701271 0.500051,1.602906 0.200021,2.805086 -0.300031,1.20218 -0.800082,2.203996 -1.600163,2.905268 -0.900091,0.801453 -1.700172,1.101998 -2.700274,1.101998 -0.40004,0 -0.800081,0 -1.200121,-0.200363 -0.300031,-0.200364 -0.600061,-0.500909 -0.800082,-0.801454 l -1.100111,4.407993 h -1.400142 z m 4.100417,-3.506358 v 0 c -0.600061,0 -1.100112,0.200363 -1.600163,0.801453 -0.40004,0.500908 -0.800081,1.20218 -1.000101,2.203996 -0.300031,1.20218 -0.300031,2.103815 -0.10001,2.905268 0.20002,0.701272 0.700071,1.101998 1.300131,1.101998 0.700071,0 1.200122,-0.300545 1.600163,-0.801453 0.500051,-0.400726 0.800081,-1.20218 1.100111,-2.103815 0.300031,-1.302361 0.300031,-2.304178 0.100011,-3.005449 -0.300031,-0.701272 -0.700071,-1.101998 -1.400142,-1.101998 z"
     id="path12"
     transform="translate(-2.6002639,-5.2094459)" />
  <path
     style="fill:#000000;fill-opacity:1;fill-rule:nonzero;stroke:none"
     clip-path="url(#clipEmfPath1)"
     d="m 84.708596,24.945231 v 0 c 0.400041,0 0.800081,-0.100181 1.000102,-0.200363 0.30003,-0.200363 0.50005,-0.500908 0.700071,-1.001816 l 0.900091,-3.305995 -1.200122,-4.307811 c -0.10001,-0.500908 -0.30003,-0.701272 -0.40004,-0.801453 -0.100011,-0.100182 -0.400041,-0.200364 -0.800082,-0.300545 v -0.200363 h 3.800386 v 0.200363 c -0.400041,0.100181 -0.700071,0.100181 -0.800081,0.100181 -0.200021,0.100182 -0.400041,0.300545 -0.400041,0.500909 0,0.100181 0.10001,0.200363 0.10001,0.400726 0,0.100182 0,0.200364 0.10001,0.200364 l 0.900092,3.406176 1.700172,-2.103815 c 0.400041,-0.400726 0.700071,-0.801453 0.900092,-1.001816 0.30003,-0.400727 0.40004,-0.801454 0.40004,-1.001817 0,-0.200363 -0.10001,-0.300545 -0.30003,-0.400727 -0.10001,0 -0.400041,0 -0.800081,-0.100181 v -0.200363 h 3.300335 v 0.200363 c -0.300031,0.100181 -0.500051,0.100181 -0.700071,0.300545 -0.200021,0.100181 -0.400041,0.300545 -0.700072,0.701271 l -3.500355,4.307811 -0.900091,2.905268 c 0,0.300545 -0.10001,0.500909 -0.10001,0.60109 0,0.200363 0,0.300545 0,0.400727 0,0.300545 0.10001,0.500908 0.30003,0.60109 0.200021,0 0.500051,0.100181 1.100112,0.100181 v 0.300545 h -4.600467 z"
     id="path13"
     transform="translate(-2.6002639,-5.2094459)" />
  <path
     style="fill:#000000;fill-opacity:1;fill-rule:nonzero;stroke:none"
     clip-path="url(#clipEmfPath1)"
     d="m 95.509692,27.049046 v 0 c 0.10001,-0.701272 0,-1.101998 -0.10001,-1.402543 -0.20002,-0.300545 -0.400041,-0.400727 -0.800081,-0.400727 -0.300031,0 -0.700071,0.100182 -1.000102,0.500909 -0.30003,0.300545 -0.50005,0.801453 -0.600061,1.402543 -0.20002,0.60109 -0.20002,1.101998 -0.10001,1.402543 0.10001,0.300545 0.400041,0.500908 0.800081,0.500908 0.300031,0 0.600061,-0.200363 0.900092,-0.400727 0.30003,-0.300544 0.600061,-0.901634 0.900091,-1.602906 z m 1.800183,-2.003633 v 0 l -0.700071,1.402543 c -0.10001,0.200363 -0.200021,0.500908 -0.400041,0.701272 -0.10001,0.200363 -0.20002,0.400726 -0.40004,0.60109 0,0.300545 0.10001,0.500908 0.20002,0.60109 0.10001,0.200363 0.20002,0.200363 0.30003,0.200363 0.10001,0 0.200021,0 0.300031,-0.100182 0.10001,0 0.10001,-0.100181 0.20002,-0.300545 h 0.20002 l -0.10001,0.100182 c 0,0.400726 -0.10001,0.60109 -0.30003,0.801453 -0.10001,0.100182 -0.300031,0.200363 -0.500051,0.200363 -0.20002,0 -0.30003,0 -0.400041,-0.200363 -0.10001,-0.200363 -0.10001,-0.500908 -0.10001,-0.901635 -0.40004,0.400727 -0.700071,0.701272 -1.000101,0.901635 -0.400041,0.100182 -0.700071,0.200363 -1.100112,0.200363 -0.600061,0 -1.000101,-0.200363 -1.300132,-0.60109 -0.30003,-0.400726 -0.40004,-0.901634 -0.20002,-1.602906 0.10001,-0.500908 0.500051,-1.001816 1.000101,-1.502725 0.500051,-0.400726 1.000102,-0.60109 1.600163,-0.60109 0.40004,0 0.700071,0.100182 0.900091,0.400727 0.20002,0.200363 0.300031,0.60109 0.300031,1.101998 l 0.700071,-1.402543 z"
     id="path14"
     transform="translate(-2.6002639,-5.2094459)" />
  <path
     style="fill:#000000;fill-opacity:1;fill-rule:nonzero;stroke:none"
     clip-path="url(#clipEmfPath1)"
     d="m 101.5103,17.832334 v 0 5.409809 c 0,0.300545 0,0.60109 0.10001,0.701272 0.10001,0.300545 0.40004,0.400726 0.80008,0.400726 0.30003,0 0.50005,-0.100181 0.80008,-0.200363 0.10001,-0.100182 0.30003,-0.200363 0.50005,-0.500908 v -4.508174 c 0,-0.300545 -0.10001,-0.500909 -0.20002,-0.701272 -0.10001,-0.100182 -0.40004,-0.200363 -0.80008,-0.200363 v -0.400727 h 3.20033 v 5.810536 c 0,0.300545 0,0.500908 0.10001,0.60109 0.20002,0.200363 0.40004,0.200363 0.80008,0.300545 v 0.300545 c -1.0001,0.100181 -1.60016,0.200363 -1.90019,0.200363 -0.20002,0.100182 -0.70007,0.200363 -1.20013,0.400727 v -1.101999 c -0.40004,0.400727 -0.70007,0.60109 -1.0001,0.701272 -0.40004,0.300545 -0.80008,0.400727 -1.30013,0.400727 -0.50005,0 -1.0001,-0.200364 -1.40014,-0.500909 -0.500052,-0.300545 -0.700072,-0.901635 -0.700072,-1.803269 v -4.007266 c 0,-0.300545 -0.10001,-0.500909 -0.200021,-0.60109 -0.10001,-0.100182 -0.30003,-0.200364 -0.60006,-0.300545 v -0.400727 z m 1.0001,-0.200363 z"
     id="path15"
     transform="translate(-2.6002639,-5.2094459)" />
  <path
     style="fill:#000000;fill-opacity:1;fill-rule:nonzero;stroke:none"
     clip-path="url(#clipEmfPath1)"
     d="m 73.307439,12.422525 v 0 c -0.800081,1.101998 -1.500152,2.304178 -1.800183,3.606539 -0.40004,1.402543 -0.600061,3.205813 -0.600061,5.509991 0,2.304178 0.200021,4.20763 0.600061,5.509991 0.300031,1.402543 1.000102,2.604723 1.800183,3.60654 l -0.30003,0.500908 c -1.100112,-1.101998 -1.900193,-2.504542 -2.600264,-4.107448 -0.600061,-1.703088 -0.900092,-3.506358 -0.900092,-5.509991 0,-1.903451 0.300031,-3.706721 0.900092,-5.409809 0.700071,-1.703088 1.500152,-3.105631 2.600264,-4.107448 z"
     id="path16"
     transform="translate(-2.6002639,-5.2094459)" />
  <path
     style="fill:#000000;fill-opacity:1;fill-rule:nonzero;stroke:none"
     clip-path="url(#clipEmfPath1)"
     d="m 108.411,12.422525 v 0 l 0.30003,-0.400727 c 1.10011,1.001817 1.90019,2.40436 2.60027,4.107448 0.60006,1.703088 0.90009,3.506358 0.90009,5.409809 0,2.003633 -0.30003,3.806903 -0.90009,5.509991 -0.70008,1.602906 -1.50016,3.00545 -2.60027,4.107448 L 108.411,30.655586 c 0.80008,-1.001817 1.50015,-2.203997 1.80018,-3.60654 0.40004,-1.302361 0.60006,-3.105631 0.60006,-5.509991 0,-2.304178 -0.20002,-4.107448 -0.60006,-5.509991 -0.30003,-1.302361 -1.0001,-2.504541 -1.80018,-3.606539 z"
     id="path17"
     transform="translate(-2.6002639,-5.2094459)" />
  <path
     style="fill:#000000;fill-opacity:1;fill-rule:nonzero;stroke:none"
     clip-path="url(#clipEmfPath1)"
     d="m 124.01258,23.04178 v 0 h -7.40075 v -1.101998 h 7.40075 z m 0,-2.103815 v 0 h -7.40075 v -1.101998 h 7.40075 z"
     id="path18"
     transform="translate(-2.6002639,-5.2094459)" />
  <path
     style="fill:#000000;fill-opacity:1;fill-rule:nonzero;stroke:none"
     clip-path="url(#clipEmfPath1)"
     d="m 135.71377,21.939782 v 0 h -7.40075 v -1.001817 h 7.40075 z"
     id="path19"
     transform="translate(-2.6002639,-5.2094459)" />
  <path
     style="fill:#000000;fill-opacity:1;fill-rule:nonzero;stroke:none"
     clip-path="url(#clipEmfPath1)"
     d="m 142.61447,22.841417 v 0 l 3.60037,-7.413443 h -7.10072 z m -0.40004,2.504541 v 0 h -0.30003 l -5.20053,-10.719437 h 10.70109 z"
     id="path20"
     transform="translate(-2.6002639,-5.2094459)" />
  <path
     style="fill:#000000;fill-opacity:1;fill-rule:nonzero;stroke:none"
     clip-path="url(#clipEmfPath1)"
     d="m 150.8153,19.936149 v 0 c 0,-0.200364 0.10001,-0.500909 0.30003,-0.60109 0.20003,-0.200363 0.40005,-0.300545 0.70008,-0.300545 0.20002,0 0.40004,0.100182 0.60006,0.300545 0.20002,0.100181 0.30003,0.300545 0.30003,0.60109 0,0.300545 -0.10001,0.500908 -0.30003,0.701271 -0.20002,0.100182 -0.40004,0.200364 -0.60006,0.200364 -0.30003,0 -0.50005,-0.100182 -0.70008,-0.300545 -0.20002,-0.100182 -0.30003,-0.400727 -0.30003,-0.60109 z"
     id="path21"
     transform="translate(-2.6002639,-5.2094459)" />
  <path
     style="fill:#000000;fill-opacity:1;fill-rule:nonzero;stroke:none"
     clip-path="url(#clipEmfPath1)"
     d="m 169.21717,21.939782 v 0 h -7.40075 v -1.001817 h 7.40075 z"
     id="path22"
     transform="translate(-2.6002639,-5.2094459)" />
  <path
     style="fill:#000000;fill-opacity:1;fill-rule:nonzero;stroke:none"
     clip-path="url(#clipEmfPath1)"
     d="m 172.31749,21.438874 v 0 c 0.30003,-1.20218 0.80008,-2.203997 1.70017,-2.905268 0.80008,-0.701272 1.70017,-1.101999 2.80028,-1.101999 1.10011,0 1.80019,0.400727 2.20023,1.101999 0.50005,0.701271 0.60006,1.602906 0.30003,2.805086 -0.30003,1.20218 -0.90009,2.203996 -1.70018,2.905268 -0.80008,0.801453 -1.70017,1.101998 -2.70027,1.101998 -0.40004,0 -0.80008,0 -1.20012,-0.200363 -0.30003,-0.200364 -0.60006,-0.500909 -0.80008,-0.801454 l -1.10011,4.407993 h -1.30014 z m 4.10041,-3.506358 v 0 c -0.60006,0 -1.10011,0.200363 -1.50015,0.801453 -0.50005,0.500908 -0.80008,1.20218 -1.10011,2.203996 -0.30003,1.20218 -0.30003,2.103815 -0.10001,2.905268 0.30003,0.701272 0.70007,1.101998 1.30013,1.101998 0.70007,0 1.20012,-0.300545 1.70017,-0.801453 0.40004,-0.400726 0.70007,-1.20218 1.0001,-2.103815 0.30003,-1.302361 0.30003,-2.304178 0.10001,-3.005449 -0.20002,-0.701272 -0.70007,-1.101998 -1.40014,-1.101998 z"
     id="path23"
     transform="translate(-2.6002639,-5.2094459)" />
  <path
     style="fill:#000000;fill-opacity:1;fill-rule:nonzero;stroke:none"
     clip-path="url(#clipEmfPath1)"
     d="m 183.91866,24.644686 v 0 c 2.30024,0 4.00041,-0.901634 4.9005,-2.805086 0.50005,-1.001816 0.70007,-2.003633 0.70007,-3.005449 0,-1.001817 -0.20002,-1.903452 -0.70007,-2.504542 -0.50005,-0.701271 -1.40014,-1.001816 -2.60026,-1.001816 -0.40004,0 -0.60006,0 -0.80008,0.100181 -0.10001,0 -0.20002,0.100182 -0.30003,0.300545 l -2.10022,7.814169 c -0.10001,0.200364 -0.10001,0.300545 -0.10001,0.300545 0,0.100182 0,0.200363 0,0.300545 0,0.200363 0,0.300545 0.20002,0.400727 0.10001,0.100181 0.40004,0.100181 0.80008,0.100181 z m -3.90039,0.300545 v 0 c 0.40004,0 0.60006,-0.100181 0.80008,-0.200363 0.20002,-0.200363 0.40004,-0.500908 0.50005,-1.001816 l 2.0002,-7.012716 c 0,-0.200363 0.10001,-0.400727 0.10001,-0.60109 0,-0.100182 0.10001,-0.200363 0.10001,-0.400727 0,-0.200363 -0.10001,-0.400726 -0.30003,-0.500908 -0.20002,-0.100182 -0.50005,-0.200363 -1.0001,-0.200363 v -0.200363 h 4.10042 c 0.80008,0 1.50015,0 2.0002,0.200363 0.60006,0.100181 1.10011,0.400726 1.60016,0.801453 0.40004,0.300545 0.70007,0.701272 0.90009,1.101998 0.30003,0.701272 0.50005,1.402543 0.50005,2.203997 0,1.602906 -0.60006,3.005449 -1.80018,4.107447 -1.40014,1.302362 -3.10031,2.003633 -5.30054,2.003633 h -4.20042 z"
     id="path24"
     transform="translate(-2.6002639,-5.2094459)" />
  <path
     style="fill:#000000;fill-opacity:1;fill-rule:nonzero;stroke:none"
     clip-path="url(#clipEmfPath1)"
     d="m 195.01979,27.049046 v 0 c 0.10001,-0.701272 0,-1.101998 -0.10001,-1.402543 -0.20002,-0.300545 -0.40004,-0.400727 -0.80008,-0.400727 -0.30003,0 -0.70007,0.100182 -1.0001,0.500909 -0.30003,0.300545 -0.50005,0.801453 -0.60006,1.402543 -0.20002,0.60109 -0.20002,1.101998 -0.10001,1.402543 0.10001,0.300545 0.40004,0.500908 0.80008,0.500908 0.30003,0 0.60006,-0.200363 0.90009,-0.400727 0.30003,-0.300544 0.60006,-0.901634 0.90009,-1.602906 z m 1.80018,-2.003633 v 0 l -0.70007,1.402543 c -0.10001,0.200363 -0.20002,0.500908 -0.40004,0.701272 -0.10001,0.200363 -0.20002,0.400726 -0.40004,0.60109 0,0.300545 0.10001,0.500908 0.20002,0.60109 0.10001,0.200363 0.20002,0.200363 0.30003,0.200363 0.10001,0 0.20002,0 0.30003,-0.100182 0.10001,0 0.10001,-0.100181 0.20002,-0.300545 h 0.20002 l -0.10001,0.100182 c 0,0.400726 -0.10001,0.60109 -0.30003,0.801453 -0.10001,0.100182 -0.30003,0.200363 -0.50005,0.200363 -0.20002,0 -0.30003,0 -0.40004,-0.200363 -0.10001,-0.200363 -0.10001,-0.500908 -0.10001,-0.901635 -0.40004,0.400727 -0.70007,0.701272 -1.0001,0.901635 -0.40004,0.100182 -0.70007,0.200363 -1.10011,0.200363 -0.60006,0 -1.0001,-0.200363 -1.30013,-0.60109 -0.30004,-0.400726 -0.40005,-0.901634 -0.20003,-1.602906 0.10002,-0.500908 0.50006,-1.001816 1.00011,-1.502725 0.50005,-0.400726 1.0001,-0.60109 1.60016,-0.60109 0.40004,0 0.70007,0.100182 0.90009,0.400727 0.20002,0.200363 0.30003,0.60109 0.30003,1.101998 l 0.70007,-1.402543 z"
     id="path25"
     transform="translate(-2.6002639,-5.2094459)" />
  <path
     style="fill:#000000;fill-opacity:1;fill-rule:nonzero;stroke:none"
     clip-path="url(#clipEmfPath1)"
     d="m 204.0207,22.841417 v 0 l 3.60037,-7.413443 h -7.20073 z m -0.40004,2.504541 v 0 h -0.30003 L 198.1201,14.626521 h 10.70109 z"
     id="path26"
     transform="translate(-2.6002639,-5.2094459)" />
  <path
     style="fill:#000000;fill-opacity:1;fill-rule:nonzero;stroke:none"
     clip-path="url(#clipEmfPath1)"
     d="m 210.32134,24.945231 v 0 c 0.50005,0 0.80008,-0.100181 1.0001,-0.200363 0.30003,-0.200363 0.50006,-0.500908 0.70008,-1.001816 l 1.0001,-3.305995 -1.30014,-4.307811 c -0.10001,-0.500908 -0.20002,-0.701272 -0.40004,-0.801453 -0.10001,-0.100182 -0.40004,-0.200364 -0.80008,-0.300545 v -0.200363 h 3.80039 v 0.200363 c -0.40004,0.100181 -0.60006,0.100181 -0.80008,0.100181 -0.20002,0.100182 -0.30003,0.300545 -0.30003,0.500909 0,0.100181 0,0.200363 0,0.400726 0,0.100182 0.10001,0.200364 0.10001,0.200364 l 0.90009,3.406176 1.80018,-2.103815 c 0.40004,-0.400726 0.60006,-0.801453 0.80008,-1.001816 0.30003,-0.400727 0.40004,-0.801454 0.40004,-1.001817 0,-0.200363 -0.10001,-0.300545 -0.30003,-0.400727 -0.10001,0 -0.40004,0 -0.80008,-0.100181 v -0.200363 h 3.30034 v 0.200363 c -0.30003,0.100181 -0.50005,0.100181 -0.70007,0.300545 -0.20002,0.100181 -0.40005,0.300545 -0.70008,0.701271 l -3.50035,4.307811 -0.80008,2.905268 c -0.10001,0.300545 -0.20002,0.500909 -0.20002,0.60109 0,0.200363 0,0.300545 0,0.400727 0,0.300545 0.10001,0.500908 0.30003,0.60109 0.20002,0 0.60006,0.100181 1.10011,0.100181 v 0.300545 h -4.60047 z"
     id="path27"
     transform="translate(-2.6002639,-5.2094459)" />
  <path
     style="fill:#000000;fill-opacity:1;fill-rule:nonzero;stroke:none"
     clip-path="url(#clipEmfPath1)"
     d="m 221.22245,27.049046 v 0 c 0,-0.701272 -0.10001,-1.101998 -0.20002,-1.402543 -0.20002,-0.300545 -0.40004,-0.400727 -0.70007,-0.400727 -0.40004,0 -0.70007,0.100182 -1.0001,0.500909 -0.30003,0.300545 -0.60006,0.801453 -0.70007,1.402543 -0.20003,0.60109 -0.20003,1.101998 -0.10001,1.402543 0.20002,0.300545 0.40004,0.500908 0.80008,0.500908 0.30003,0 0.70007,-0.200363 0.90009,-0.400727 0.30003,-0.300544 0.60006,-0.901634 1.0001,-1.602906 z m 1.80018,-2.003633 v 0 l -0.70007,1.402543 c -0.20002,0.200363 -0.30003,0.500908 -0.40004,0.701272 -0.20002,0.200363 -0.30003,0.400726 -0.50005,0.60109 0.10001,0.300545 0.10001,0.500908 0.20002,0.60109 0.10001,0.200363 0.20002,0.200363 0.30003,0.200363 0.10001,0 0.20002,0 0.30003,-0.100182 0.10001,0 0.20002,-0.100181 0.20002,-0.300545 h 0.20002 v 0.100182 c -0.10001,0.400726 -0.20002,0.60109 -0.40004,0.801453 -0.10001,0.100182 -0.30003,0.200363 -0.50005,0.200363 -0.20002,0 -0.30003,0 -0.40004,-0.200363 -0.10001,-0.200363 -0.10001,-0.500908 -0.10001,-0.901635 -0.30003,0.400727 -0.70007,0.701272 -1.0001,0.901635 -0.30003,0.100182 -0.70007,0.200363 -1.10011,0.200363 -0.60006,0 -1.00011,-0.200363 -1.30014,-0.60109 -0.30003,-0.400726 -0.30003,-0.901634 -0.20002,-1.602906 0.20002,-0.500908 0.50005,-1.001816 1.00011,-1.502725 0.50005,-0.400726 1.0001,-0.60109 1.60016,-0.60109 0.40004,0 0.70007,0.100182 0.90009,0.400727 0.20002,0.200363 0.30003,0.60109 0.30003,1.101998 l 0.70007,-1.402543 z"
     id="path28"
     transform="translate(-2.6002639,-5.2094459)" />
  <path
     style="fill:#000000;fill-opacity:1;fill-rule:nonzero;stroke:none"
     clip-path="url(#clipEmfPath1)"
     d="m 160.11625,12.422525 v 0 c -0.90009,1.101998 -1.50015,2.304178 -1.90019,3.606539 -0.40005,1.402543 -0.60007,3.205813 -0.60007,5.509991 0,2.304178 0.20002,4.20763 0.60007,5.509991 0.40004,1.402543 1.0001,2.604723 1.90019,3.60654 l -0.30003,0.500908 c -1.10011,-1.101998 -2.00021,-2.504542 -2.60027,-4.107448 -0.60006,-1.703088 -0.90009,-3.506358 -0.90009,-5.509991 0,-1.903451 0.30003,-3.706721 0.90009,-5.409809 0.60006,-1.703088 1.50016,-3.105631 2.60027,-4.107448 z"
     id="path29"
     transform="translate(-2.6002639,-5.2094459)" />
  <path
     style="fill:#000000;fill-opacity:1;fill-rule:nonzero;stroke:none"
     clip-path="url(#clipEmfPath1)"
     d="m 225.82292,12.422525 v 0 l 0.30003,-0.400727 c 1.10011,1.001817 1.90019,2.40436 2.60026,4.107448 0.60006,1.703088 0.90009,3.506358 0.90009,5.409809 0,2.003633 -0.30003,3.806903 -0.90009,5.509991 -0.70007,1.602906 -1.50015,3.00545 -2.60026,4.107448 l -0.30003,-0.500908 c 0.90009,-1.001817 1.50015,-2.203997 1.90019,-3.60654 0.30003,-1.302361 0.50005,-3.105631 0.50005,-5.509991 0,-2.304178 -0.20002,-4.107448 -0.50005,-5.509991 -0.40004,-1.302361 -1.0001,-2.504541 -1.90019,-3.606539 z"
     id="path30"
     transform="translate(-2.6002639,-5.2094459)" />
  <path
     style="fill:#000000;fill-opacity:1;fill-rule:nonzero;stroke:none"
     clip-path="url(#clipEmfPath1)"
     d="m 237.42409,20.937965 v 0 h 3.10032 v 1.001817 h -3.10032 v 3.305994 h -1.10011 v -3.305994 h -3.20032 v -1.001817 h 3.20032 v -3.305994 h 1.10011 z"
     id="path31"
     transform="translate(-2.6002639,-5.2094459)" />
  <path
     style="fill:#000000;fill-opacity:1;fill-rule:nonzero;stroke:none"
     clip-path="url(#clipEmfPath1)"
     d="m 251.22549,15.427974 v 0 c 0,-0.300545 -0.10001,-0.500908 -0.20002,-0.601089 -0.10001,-0.200364 -0.30003,-0.200364 -0.60006,-0.200364 -0.20002,0 -0.40004,0 -0.60006,0.200364 -0.10001,0.100181 -0.20002,0.300544 -0.20002,0.601089 0,0.200364 0.10001,0.400727 0.20002,0.60109 0.20002,0.100182 0.40004,0.200364 0.60006,0.200364 0.30003,0 0.50005,-0.100182 0.60006,-0.200364 0.10001,-0.200363 0.20002,-0.400726 0.20002,-0.60109 z"
     id="path32"
     transform="translate(-2.6002639,-5.2094459)" />
  <path
     style="fill:#000000;fill-opacity:1;fill-rule:nonzero;stroke:none"
     clip-path="url(#clipEmfPath1)"
     d="m 249.72534,18.132879 v 0 c 0.20002,0 0.40004,0.100182 0.60006,0.200363 0.20002,0.200364 0.40004,0.400727 0.40004,0.801454 0,0.200363 -0.10001,0.500908 -0.20002,0.801453 0,0.300545 -0.20002,0.801453 -0.40004,1.502725 0.50005,-0.901635 1.0001,-1.602907 1.50015,-2.003634 0.70008,-0.901634 1.40015,-1.302361 1.9002,-1.302361 0.30003,0 0.50005,0.100182 0.70007,0.300545 0.20002,0.100182 0.30003,0.400727 0.30003,0.801453 0,0.100182 0,0.400727 -0.10001,0.801453 l -1.20012,4.20763 c 0,0.100181 0,0.200363 0,0.200363 0.10001,0.100182 0.20002,0.100182 0.30003,0.100182 0,0 0.10001,0 0.20002,0 0.10001,-0.100182 0.20002,-0.100182 0.30003,-0.300545 0.10001,-0.100182 0.20002,-0.200364 0.20002,-0.200364 0.10001,-0.100181 0.30003,-0.300544 0.60006,-0.701271 l 0.20002,0.200363 -0.10001,0.100182 c -0.30003,0.500908 -0.70007,0.901635 -1.10011,1.302361 -0.40004,0.300545 -0.70007,0.400727 -1.10011,0.400727 -0.20002,0 -0.30003,0 -0.40004,-0.100182 -0.20002,-0.100181 -0.30004,-0.400726 -0.30004,-0.701271 0,-0.100182 0,-0.100182 0,-0.200364 0,-0.100181 0.10002,-0.200363 0.10002,-0.300545 l 1.10011,-4.407992 c 0,0 0,-0.100182 0,-0.100182 0,-0.100182 0,-0.100182 0,-0.100182 0,-0.200363 0,-0.300544 0,-0.300544 -0.10001,-0.100182 -0.20002,-0.100182 -0.30003,-0.100182 -0.30003,0 -0.70007,0.200363 -1.20013,0.701271 -0.50005,0.60109 -0.90009,1.101999 -1.20012,1.602907 -0.30003,0.60109 -0.50005,1.001816 -0.70007,1.402543 -0.10001,0.400727 -0.30003,1.20218 -0.70007,2.504541 h -1.20012 l 1.50015,-5.610172 c 0,0 0,-0.100182 0,-0.100182 0,0 0.10001,-0.100182 0.10001,-0.100182 0,-0.200363 -0.10001,-0.300544 -0.10001,-0.300544 -0.10001,-0.100182 -0.20002,-0.100182 -0.30003,-0.100182 -0.30003,0 -0.70007,0.200363 -1.20012,0.801453 -0.50005,0.500908 -0.90009,1.001817 -1.20012,1.502725 -0.30003,0.500908 -0.60006,1.101998 -0.80008,1.80327 -0.20002,0.500908 -0.40004,1.202179 -0.70008,2.103814 h -1.20012 l 1.50016,-5.610172 c 0,0 0,-0.100182 0.10001,-0.100182 0,-0.100182 0,-0.100182 0,-0.200363 0,-0.200363 -0.10001,-0.300545 -0.20002,-0.400727 -0.20003,0 -0.40005,0 -0.80009,0 v -0.300545 c 0.50005,0 1.30014,-0.200363 2.50026,-0.500908 l 0.10001,0.100182 -1.0001,3.205813 c 0.60006,-0.901635 1.20012,-1.602907 1.70017,-2.103815 0.70007,-0.801453 1.30013,-1.20218 1.80018,-1.20218 z"
     id="path33"
     transform="translate(-2.6002639,-5.2094459)" />
  <path
     style="fill:#000000;fill-opacity:1;fill-rule:nonzero;stroke:none"
     clip-path="url(#clipEmfPath1)"
     d="m 259.1263,27.049046 v 0 c 0,-0.701272 0,-1.101998 -0.20002,-1.402543 -0.10001,-0.300545 -0.30004,-0.400727 -0.70008,-0.400727 -0.40004,0 -0.70007,0.100182 -1.0001,0.500909 -0.30003,0.300545 -0.50005,0.801453 -0.70007,1.402543 -0.10001,0.60109 -0.10001,1.101998 0,1.402543 0.10001,0.300545 0.40004,0.500908 0.70007,0.500908 0.40004,0 0.70007,-0.200363 1.0001,-0.400727 0.30003,-0.300544 0.60007,-0.901634 0.9001,-1.602906 z m 1.80018,-2.003633 v 0 l -0.70007,1.402543 c -0.10001,0.200363 -0.20002,0.500908 -0.40004,0.701272 -0.10001,0.200363 -0.30003,0.400726 -0.40004,0.60109 0,0.300545 0.10001,0.500908 0.20002,0.60109 0.10001,0.200363 0.20002,0.200363 0.30003,0.200363 0.10001,0 0.20002,0 0.30003,-0.100182 0.10001,0 0.10001,-0.100181 0.20002,-0.300545 h 0.20002 l -0.10001,0.100182 c -0.10001,0.400726 -0.20002,0.60109 -0.30003,0.801453 -0.10001,0.100182 -0.30003,0.200363 -0.50005,0.200363 -0.20002,0 -0.40004,0 -0.40004,-0.200363 -0.10001,-0.200363 -0.10001,-0.500908 -0.10001,-0.901635 -0.40004,0.400727 -0.70008,0.701272 -1.10012,0.901635 -0.30003,0.100182 -0.60006,0.200363 -1.0001,0.200363 -0.60006,0 -1.0001,-0.200363 -1.30013,-0.60109 -0.30003,-0.400726 -0.40004,-0.901634 -0.20002,-1.602906 0.10001,-0.500908 0.50005,-1.001816 1.0001,-1.502725 0.50005,-0.400726 1.0001,-0.60109 1.50015,-0.60109 0.50005,0 0.80009,0.100182 1.00011,0.400727 0.20002,0.200363 0.30003,0.60109 0.30003,1.101998 l 0.70007,-1.402543 z"
     id="path34"
     transform="translate(-2.6002639,-5.2094459)" />
  <path
     style="fill:#000000;fill-opacity:1;fill-rule:nonzero;stroke:none"
     clip-path="url(#clipEmfPath1)"
     d="m 256.92607,11.621072 v 0 c 0,-0.300545 0.10001,-0.60109 0.20002,-0.701272 0.20002,-0.100182 0.30003,-0.200363 0.50005,-0.200363 0.20002,0 0.30003,0 0.40004,0.100181 0.10001,0.100182 0.20002,0.300545 0.20002,0.400727 0,0.100182 0,0.200363 0,0.300545 -0.10001,0.100182 -0.10001,0.200363 -0.20002,0.300545 l -1.40014,3.305994 h -0.30003 z"
     id="path35"
     transform="translate(-2.6002639,-5.2094459)" />
  <path
     style="fill:#000000;fill-opacity:1;fill-rule:nonzero;stroke:none"
     clip-path="url(#clipEmfPath1)"
     d="m 258.82627,11.621072 v 0 c 0,-0.300545 0.10001,-0.60109 0.20002,-0.701272 0.10001,-0.100182 0.30003,-0.200363 0.50005,-0.200363 0.20002,0 0.30003,0 0.40004,0.100181 0.10001,0.100182 0.20002,0.300545 0.20002,0.400727 0,0.100182 0,0.200363 -0.10001,0.300545 0,0.100182 0,0.200363 -0.10001,0.300545 l -1.50016,3.305994 h -0.20002 z"
     id="path36"
     transform="translate(-2.6002639,-5.2094459)" />
  <path
     style="fill:#000000;fill-opacity:1;fill-rule:nonzero;stroke:none"
     clip-path="url(#clipEmfPath1)"
     d="m 260.62645,11.621072 v 0 c 0.10001,-0.300545 0.20002,-0.60109 0.30003,-0.701272 0.10001,-0.100182 0.30003,-0.200363 0.50005,-0.200363 0.10001,0 0.30003,0 0.40004,0.100181 0.10001,0.100182 0.10001,0.300545 0.10001,0.400727 0,0.100182 0,0.200363 0,0.300545 0,0.100182 -0.10001,0.200363 -0.10001,0.300545 l -1.50015,3.305994 h -0.20002 z"
     id="path37"
     transform="translate(-2.6002639,-5.2094459)" />
</svg>
